<?xml version="1.0" encoding="UTF-8" standalone="no"?>
<svg width="24px" height="24px" viewBox="0 0 24 24" version="1.1" xmlns="http://www.w3.org/2000/svg" xmlns:xlink="http://www.w3.org/1999/xlink">
    <!-- Generator: sketchtool 39.1 (31720) - http://www.bohemiancoding.com/sketch -->
    <title>275984D5-DD22-4ECA-840D-5ED5A234E81C</title>
    <desc>Created with sketchtool.</desc>
    <defs></defs>
    <g id="CUT" stroke="none" stroke-width="1" fill="none" fill-rule="evenodd">
        <g id="Icons" transform="translate(-24.000000, -816.000000)" fill="#000000">
            <g id="food" transform="translate(26.000000, 816.000000)">
                <path d="M17.2332222,7.88903226 C15.1861111,6.70219355 12.6933333,6.69135484 10.8507778,7.72722581 C10.7535556,6.67509677 10.4642222,5.74064516 10.0768889,4.91767742 C10.7403333,5.13677419 11.683,5.36825806 12.7407778,5.36825806 C13.2758889,5.36825806 13.8366667,5.30864516 14.4005556,5.15845161 C17.017,4.46090323 18.5982222,2.09419355 18.6643333,1.99432258 L19.1411111,1.26890323 L18.3641111,0.878709677 C18.256,0.824516129 15.6971111,-0.438193548 13.0814444,0.260903226 C10.9417778,0.831483871 9.49511111,2.51690323 9.00277778,3.16722581 C8.16822222,2.08412903 7.24888889,1.33006452 6.67411111,0.919741935 L5.76722222,2.17780645 C6.75344444,2.88232258 8.93744444,4.76283871 9.28122222,7.72412903 C7.31811111,6.68516129 4.76933333,6.72077419 2.77744444,7.94787097 C0.179666667,9.54812903 -0.658,12.5945806 0.537444444,16.0978065 C2.38933333,21.5272258 5.53544444,22.7976774 6.80244444,23.091871 C8.02822222,23.376 9.212,23.2110968 10.1025556,22.652129 C10.6788889,23.0299355 11.4022222,23.2296774 12.1955556,23.2296774 C12.5323333,23.2296774 12.8815556,23.1940645 13.237,23.1197419 C14.553,22.848 17.8165556,21.620129 19.7003333,16.0978065 C20.9097778,12.5527742 19.9873333,9.48387097 17.2332222,7.88903226 L17.2332222,7.88903226 Z M13.4851111,1.75664516 C14.686,1.43612903 15.9195556,1.6676129 16.7331111,1.91225806 C16.1521111,2.52929032 15.1993333,3.34296774 13.9984444,3.66348387 C12.796,3.98477419 11.5601111,3.75174194 10.7473333,3.50709677 C11.326,2.89083871 12.2756667,2.07948387 13.4851111,1.75664516 L13.4851111,1.75664516 Z M18.228,15.6 C17.1002222,18.9065806 15.1168889,21.1501935 12.922,21.6030968 C11.9878889,21.7950968 11.1346667,21.6162581 10.696,21.1354839 L10.1468889,20.5331613 L9.569,21.1083871 C9.04866667,21.6263226 8.12388889,21.8098065 7.15555556,21.5845161 C6.14211111,21.3491613 3.612,20.2947097 2.01055556,15.6007742 C1.05077778,12.7865806 1.62866667,10.4763871 3.59722222,9.26477419 C5.50588889,8.08954839 8.071,8.33496774 9.56666667,9.83612903 L10.15,10.4214194 L10.7006667,9.80516129 C11.9917778,8.36051613 14.5164444,8.10658065 16.4515556,9.2276129 C17.4424444,9.80206452 19.6007778,11.5726452 18.228,15.6 L18.228,15.6 Z" id="Shape"></path>
            </g>
        </g>
    </g>
</svg>